<svg width="140" height="125" viewBox="0 0 140 125" fill="none" xmlns="http://www.w3.org/2000/svg">
<path d="M137.229 26.2447C146.128 47.0447 132.628 81.7447 110.528 95.6447C88.5285 109.545 57.9285 102.645 38.4285 86.9447C19.0285 71.3447 10.7285 46.8447 17.1285 29.4447C23.5285 12.1447 44.6285 1.84466 70.8285 0.244661C97.0285 -1.45534 128.329 5.54466 137.229 26.2447Z" fill="#007BFF"/>
<path d="M125.148 44.8513L125.147 44.8497C120.539 34.1319 110.183 27.0675 97.836 22.8972C85.4744 18.7219 70.965 17.3904 57.7656 18.2466C31.4413 19.8547 9.80216 30.2259 3.19062 48.0977L3.18997 48.0995C-3.39886 66.0129 5.16926 90.9366 24.8014 106.724C44.5069 122.589 75.5786 129.695 98.0609 115.491C109.333 108.401 118.353 96.0566 123.436 82.8924C128.513 69.7449 129.739 55.5801 125.148 44.8513Z" stroke="#333333" stroke-width="2"/>
</svg>
