<svg width="35" height="31" viewBox="0 0 35 31" fill="none" xmlns="http://www.w3.org/2000/svg">
<path d="M11.5507 30.7343C9.41181 30.7343 7.49514 30.3871 5.8007 29.6927C4.10626 28.9982 2.74514 27.9704 1.71737 26.6093C0.717366 25.2482 0.189589 23.6093 0.134033 21.6927H7.71737C7.82848 22.776 8.20348 23.6093 8.84237 24.1927C9.48126 24.7482 10.3146 25.026 11.3424 25.026C12.3979 25.026 13.2313 24.7899 13.8424 24.3177C14.4535 23.8177 14.759 23.1371 14.759 22.276C14.759 21.5538 14.509 20.9566 14.009 20.4843C13.5368 20.0121 12.9396 19.6232 12.2174 19.3177C11.5229 19.0121 10.5229 18.6649 9.21737 18.276C7.32848 17.6927 5.78681 17.1093 4.59237 16.526C3.39792 15.9427 2.37014 15.0816 1.50903 13.9427C0.647922 12.8038 0.217367 11.3177 0.217367 9.48433C0.217367 6.76211 1.20348 4.63711 3.1757 3.10933C5.14792 1.55378 7.71737 0.776001 10.884 0.776001C14.1063 0.776001 16.7035 1.55378 18.6757 3.10933C20.6479 4.63711 21.7035 6.776 21.8424 9.526H14.134C14.0785 8.58156 13.7313 7.84545 13.0924 7.31767C12.4535 6.76211 11.634 6.48433 10.634 6.48433C9.77292 6.48433 9.07848 6.72044 8.5507 7.19267C8.02292 7.63711 7.75903 8.28989 7.75903 9.151C7.75903 10.0954 8.20348 10.8316 9.09237 11.3593C9.98126 11.8871 11.3701 12.4566 13.259 13.0677C15.1479 13.7066 16.6757 14.3177 17.8424 14.901C19.0368 15.4843 20.0646 16.3316 20.9257 17.4427C21.7868 18.5538 22.2174 19.9843 22.2174 21.7343C22.2174 23.401 21.7868 24.9149 20.9257 26.276C20.0924 27.6371 18.8701 28.7204 17.259 29.526C15.6479 30.3316 13.7451 30.7343 11.5507 30.7343Z" fill="#EFF0E3"/>
<path d="M29.9355 30.776C28.6855 30.776 27.6577 30.4149 26.8521 29.6927C26.0744 28.9427 25.6855 28.026 25.6855 26.9427C25.6855 25.8316 26.0744 24.901 26.8521 24.151C27.6577 23.401 28.6855 23.026 29.9355 23.026C31.1577 23.026 32.1577 23.401 32.9355 24.151C33.741 24.901 34.1438 25.8316 34.1438 26.9427C34.1438 28.026 33.741 28.9427 32.9355 29.6927C32.1577 30.4149 31.1577 30.776 29.9355 30.776Z" fill="#EFF0E3"/>
</svg>
