<svg width="166" height="35" viewBox="0 0 166 35" fill="none" xmlns="http://www.w3.org/2000/svg">
<path d="M9.5328 25.9891C7.74685 25.9891 6.14645 25.6991 4.73161 25.1193C3.31677 24.5394 2.18025 23.6812 1.32207 22.5447C0.487077 21.4082 0.0463883 20.0398 0 18.4394H6.33201C6.42478 19.3439 6.73791 20.0398 7.27137 20.5268C7.80484 20.9907 8.50066 21.2227 9.35885 21.2227C10.2402 21.2227 10.9361 21.0255 11.4463 20.6312C11.9566 20.2137 12.2117 19.6455 12.2117 18.9264C12.2117 18.3234 12.003 17.8247 11.5855 17.4304C11.1912 17.0361 10.6925 16.7114 10.0895 16.4563C9.50961 16.2011 8.67462 15.9112 7.58449 15.5865C6.00729 15.0994 4.72001 14.6123 3.72266 14.1252C2.72531 13.6382 1.86713 12.9192 1.14811 11.9682C0.429092 11.0172 0.0695825 9.77634 0.0695825 8.24553C0.0695825 5.9725 0.892975 4.19814 2.53976 2.92246C4.18655 1.62359 6.33201 0.974155 8.97614 0.974155C11.6667 0.974155 13.8353 1.62359 15.4821 2.92246C17.1289 4.19814 18.0103 5.98409 18.1262 8.28032H11.6899C11.6435 7.49172 11.3535 6.87707 10.8201 6.43638C10.2866 5.9725 9.60239 5.74056 8.7674 5.74056C8.04838 5.74056 7.46852 5.93771 7.02783 6.33201C6.58714 6.70311 6.3668 7.24818 6.3668 7.9672C6.3668 8.7558 6.73791 9.37044 7.48012 9.81113C8.22233 10.2518 9.38204 10.7273 10.9592 11.2376C12.5364 11.771 13.8121 12.2813 14.7863 12.7684C15.7836 13.2555 16.6418 13.9629 17.3608 14.8907C18.0799 15.8184 18.4394 17.0129 18.4394 18.4742C18.4394 19.8658 18.0799 21.1299 17.3608 22.2664C16.665 23.4029 15.6445 24.3075 14.2992 24.9801C12.9539 25.6528 11.3651 25.9891 9.5328 25.9891Z" fill="#EFF0E3"/>
<path d="M20.9177 16.004C20.9177 14.0093 21.2888 12.2581 22.031 10.7505C22.7964 9.24288 23.8286 8.08317 25.1274 7.27137C26.4263 6.45957 27.8759 6.05368 29.4763 6.05368C30.8448 6.05368 32.0393 6.33201 33.0598 6.88867C34.1036 7.44533 34.9038 8.17594 35.4604 9.08052V6.33201H41.4097V25.7455H35.4604V22.997C34.8806 23.9016 34.0688 24.6322 33.0251 25.1889C32.0045 25.7455 30.81 26.0239 29.4416 26.0239C27.8644 26.0239 26.4263 25.618 25.1274 24.8062C23.8286 23.9712 22.7964 22.7999 22.031 21.2922C21.2888 19.7614 20.9177 17.9987 20.9177 16.004ZM35.4604 16.0388C35.4604 14.5543 35.0429 13.383 34.208 12.5249C33.3962 11.6667 32.3988 11.2376 31.2159 11.2376C30.033 11.2376 29.0241 11.6667 28.1891 12.5249C27.3773 13.3598 26.9714 14.5195 26.9714 16.004C26.9714 17.4884 27.3773 18.6713 28.1891 19.5527C29.0241 20.4109 30.033 20.84 31.2159 20.84C32.3988 20.84 33.3962 20.4109 34.208 19.5527C35.0429 18.6945 35.4604 17.5232 35.4604 16.0388Z" fill="#EFF0E3"/>
<path d="M57.5428 6.12326C59.8159 6.12326 61.625 6.86547 62.9703 8.3499C64.3387 9.81113 65.023 11.829 65.023 14.4036V25.7455H59.1084V15.2038C59.1084 13.9049 58.7721 12.896 58.0995 12.1769C57.4269 11.4579 56.5223 11.0984 55.3858 11.0984C54.2493 11.0984 53.3447 11.4579 52.6721 12.1769C51.9994 12.896 51.6631 13.9049 51.6631 15.2038V25.7455H45.7138V6.33201H51.6631V8.90656C52.2662 8.04838 53.078 7.37574 54.0985 6.88867C55.119 6.3784 56.2672 6.12326 57.5428 6.12326Z" fill="#EFF0E3"/>
<path d="M67.9742 16.004C67.9742 14.0093 68.3453 12.2581 69.0875 10.7505C69.853 9.24288 70.8851 8.08317 72.184 7.27137C73.4828 6.45957 74.9325 6.05368 76.5329 6.05368C77.8086 6.05368 78.9683 6.32041 80.012 6.85388C81.0789 7.38734 81.9139 8.10636 82.517 9.01093V0H88.4663V25.7455H82.517V22.9622C81.9603 23.89 81.1601 24.6322 80.1164 25.1889C79.0958 25.7455 77.9013 26.0239 76.5329 26.0239C74.9325 26.0239 73.4828 25.618 72.184 24.8062C70.8851 23.9712 69.853 22.7999 69.0875 21.2922C68.3453 19.7614 67.9742 17.9987 67.9742 16.004ZM82.517 16.0388C82.517 14.5543 82.0995 13.383 81.2645 12.5249C80.4527 11.6667 79.4553 11.2376 78.2724 11.2376C77.0895 11.2376 76.0806 11.6667 75.2456 12.5249C74.4338 13.3598 74.0279 14.5195 74.0279 16.004C74.0279 17.4884 74.4338 18.6713 75.2456 19.5527C76.0806 20.4109 77.0895 20.84 78.2724 20.84C79.4553 20.84 80.4527 20.4109 81.2645 19.5527C82.0995 18.6945 82.517 17.5232 82.517 16.0388Z" fill="#EFF0E3"/>
<path d="M111.071 15.7256C111.071 16.2823 111.036 16.8622 110.966 17.4652H97.5019C97.5947 18.6713 97.9774 19.5991 98.65 20.2485C99.3459 20.8748 100.192 21.1879 101.19 21.1879C102.674 21.1879 103.706 20.5616 104.286 19.3091H110.618C110.294 20.5848 109.702 21.7329 108.844 22.7535C108.009 23.774 106.954 24.5742 105.678 25.1541C104.402 25.7339 102.976 26.0239 101.399 26.0239C99.4966 26.0239 97.8035 25.618 96.319 24.8062C94.8346 23.9944 93.6749 22.8347 92.8399 21.327C92.0049 19.8194 91.5874 18.0567 91.5874 16.0388C91.5874 14.0209 91.9933 12.2581 92.8051 10.7505C93.6401 9.24288 94.7998 8.08317 96.2842 7.27137C97.7687 6.45957 99.4734 6.05368 101.399 6.05368C103.277 6.05368 104.947 6.44798 106.409 7.23658C107.87 8.02518 109.006 9.1501 109.818 10.6113C110.653 12.0726 111.071 13.7773 111.071 15.7256ZM104.982 14.16C104.982 13.1395 104.634 12.3277 103.938 11.7247C103.243 11.1216 102.373 10.8201 101.329 10.8201C100.332 10.8201 99.485 11.11 98.7892 11.6899C98.1166 12.2697 97.6991 13.0931 97.5367 14.16H104.982Z" fill="#EFF0E3"/>
<path d="M132.509 15.7256C132.509 16.2823 132.474 16.8622 132.405 17.4652H118.941C119.033 18.6713 119.416 19.5991 120.089 20.2485C120.785 20.8748 121.631 21.1879 122.629 21.1879C124.113 21.1879 125.145 20.5616 125.725 19.3091H132.057C131.732 20.5848 131.141 21.7329 130.283 22.7535C129.448 23.774 128.392 24.5742 127.117 25.1541C125.841 25.7339 124.415 26.0239 122.837 26.0239C120.935 26.0239 119.242 25.618 117.758 24.8062C116.273 23.9944 115.114 22.8347 114.279 21.327C113.444 19.8194 113.026 18.0567 113.026 16.0388C113.026 14.0209 113.432 12.2581 114.244 10.7505C115.079 9.24288 116.239 8.08317 117.723 7.27137C119.207 6.45957 120.912 6.05368 122.837 6.05368C124.716 6.05368 126.386 6.44798 127.847 7.23658C129.308 8.02518 130.445 9.1501 131.257 10.6113C132.092 12.0726 132.509 13.7773 132.509 15.7256ZM126.421 14.16C126.421 13.1395 126.073 12.3277 125.377 11.7247C124.681 11.1216 123.811 10.8201 122.768 10.8201C121.77 10.8201 120.924 11.11 120.228 11.6899C119.555 12.2697 119.138 13.0931 118.975 14.16H126.421Z" fill="#EFF0E3"/>
<path d="M141.597 9.08052C142.177 8.17594 142.977 7.44533 143.998 6.88867C145.018 6.33201 146.213 6.05368 147.581 6.05368C149.182 6.05368 150.631 6.45957 151.93 7.27137C153.229 8.08317 154.25 9.24288 154.992 10.7505C155.757 12.2581 156.14 14.0093 156.14 16.004C156.14 17.9987 155.757 19.7614 154.992 21.2922C154.25 22.7999 153.229 23.9712 151.93 24.8062C150.631 25.618 149.182 26.0239 147.581 26.0239C146.236 26.0239 145.041 25.7455 143.998 25.1889C142.977 24.6322 142.177 23.9132 141.597 23.0318V35H135.648V6.33201H141.597V9.08052ZM150.086 16.004C150.086 14.5195 149.669 13.3598 148.834 12.5249C148.022 11.6667 147.013 11.2376 145.807 11.2376C144.624 11.2376 143.615 11.6667 142.78 12.5249C141.968 13.383 141.562 14.5543 141.562 16.0388C141.562 17.5232 141.968 18.6945 142.78 19.5527C143.615 20.4109 144.624 20.84 145.807 20.84C146.99 20.84 147.999 20.4109 148.834 19.5527C149.669 18.6713 150.086 17.4884 150.086 16.004Z" fill="#EFF0E3"/>
<path d="M162.044 26.0239C161.001 26.0239 160.142 25.7223 159.47 25.1193C158.82 24.493 158.496 23.7276 158.496 22.8231C158.496 21.8953 158.82 21.1183 159.47 20.492C160.142 19.8658 161.001 19.5527 162.044 19.5527C163.065 19.5527 163.9 19.8658 164.549 20.492C165.222 21.1183 165.558 21.8953 165.558 22.8231C165.558 23.7276 165.222 24.493 164.549 25.1193C163.9 25.7223 163.065 26.0239 162.044 26.0239Z" fill="#EFF0E3"/>
</svg>
